<svg width="199" height="60" viewBox="0 0 199 60" fill="#0057B7" xmlns="http://www.w3.org/2000/svg">
    <path d="M52.7951 18.9568C52.7412 18.0133 52.377 17.1102 51.7565 16.3823L51.7295 16.2745H51.6621C51.3248 15.8971 50.9202 15.5871 50.4616 15.3714L46.6038 13.2148L47.6289 12.2982L47.3726 11.5569C47.3591 11.503 45.6191 6.59664 40.7766 3.14604C36.3793 -0.00801939 28.1916 -0.0214977 26.5999 0.00546008C25.278 -0.0214977 20.6648 0.00546032 16.6047 1.20508V1.1916L16.1326 1.35335C15.8628 1.43422 15.6065 1.52857 15.3502 1.62293L14.3925 1.9599L14.406 2.00034C13.6507 2.33731 12.9897 2.71472 12.4232 3.13256C8.02583 6.28662 6.16438 10.6673 5.84065 11.5164L5.57087 12.2847L6.82533 13.39L2.75171 15.331C1.37586 16.0184 0.472107 17.3932 0.391174 18.9298L0 26.2354V26.2489L0.741883 27.9472L0.0269772 29.5781V34.3497L8.30909 43.1379L8.92958 45.928C8.99702 46.2246 9.11842 46.5481 9.30727 46.8716C10.3864 48.6508 16.281 57.6008 25.8445 59.9191C26.0738 59.973 26.3301 60 26.5729 60C26.8292 60 27.072 59.973 27.3013 59.9191C31.3614 58.9352 35.2327 56.6842 38.7668 53.1932C41.6534 50.3626 43.38 47.6399 43.8386 46.8716C44.0139 46.5885 44.1353 46.265 44.2163 45.928L44.8637 43.0031L53.1593 34.3766L53.1728 34.3631V29.6186L52.4444 27.9607L53.1998 26.2623L52.7951 18.9568ZM45.781 27.9472L43.933 19.5633L50.4211 18.7681C50.4481 18.8894 50.4616 18.9972 50.4751 19.0781L50.8393 25.8445L50.3537 26.9632L45.781 27.9472ZM46.8196 34.1071C46.914 33.6622 46.914 33.2174 46.8196 32.7726L46.2531 30.2117L50.4885 29.2951L50.8393 30.0769V33.4331L45.8214 38.6494L46.8196 34.1071ZM43.1911 16.2475L44.7558 14.8592L48.101 16.7193L43.4339 17.2989L43.2316 16.3688L43.1911 16.2475ZM16.9959 11.6917C15.0265 12.3926 13.1111 13.2552 11.3036 14.2931L8.29561 11.6377C9.03749 10.1011 10.7101 7.23015 13.7451 5.04657C14.1497 4.76351 14.6218 4.48045 15.1479 4.23783L17.6973 11.449C17.468 11.5299 17.2387 11.6243 16.9959 11.6917ZM32.481 10.5729C30.5116 10.0742 28.6232 9.81809 26.8427 9.79113H26.4111C24.4147 9.80461 22.2295 10.1281 19.9229 10.7616L17.3466 3.44258C19.9229 2.68776 23.3626 2.28339 26.5594 2.35079H26.5864C29.2032 2.31035 32.0494 2.57993 34.4099 3.09213L32.481 10.5729ZM8.5384 33.2714L9.11842 30.6295L9.34773 29.5647L11.479 19.8464L11.5734 19.8599L11.7218 18.7546L12.1399 16.8541C12.1939 16.6384 12.3288 16.4497 12.5176 16.3419C13.246 15.924 15.2423 14.8457 17.8457 13.8618C17.9536 13.8213 18.075 13.7809 18.1964 13.7404C18.2908 13.7 18.3987 13.6731 18.4931 13.6326L18.5066 13.6596L19.4508 13.3361C23.5514 12.123 26.492 12.0825 26.5324 12.0825H26.7483C27.7869 12.123 30.6196 12.3521 34.2615 13.4978C37.1346 14.4683 39.4682 15.6814 40.6013 16.3284C40.7901 16.4362 40.925 16.6249 40.9789 16.8406L41.5185 19.3072L41.5859 19.8194H41.6264L44.567 33.2579C44.6074 33.3792 44.6074 33.487 44.5805 33.5949L41.9636 45.4158C41.9501 45.4832 41.9232 45.5641 41.8692 45.645C40.871 47.2759 35.489 55.5385 26.7618 57.6412C26.6539 57.6682 26.492 57.6682 26.3841 57.6412C17.7108 55.552 12.2748 47.2894 11.2766 45.645C11.2227 45.5641 11.1957 45.4832 11.1822 45.4158L8.56538 33.5949C8.51143 33.5005 8.51143 33.3792 8.5384 33.2714ZM41.8557 14.3066C39.6436 13.053 37.283 12.0286 34.8415 11.2603C34.8011 11.2469 34.7741 11.2334 34.7471 11.2199C34.7336 11.2199 34.7201 11.2064 34.7067 11.2064L36.6625 3.69868C37.7686 4.07609 38.6859 4.52089 39.4142 5.04657C42.5841 7.31102 44.2702 10.3842 44.8637 11.6512L41.8557 14.3066ZM5.27412 16.7058L8.70027 15.0883L9.92775 16.1801C9.91426 16.234 9.90077 16.288 9.88728 16.3284L9.68495 17.2719L5.27412 16.7058ZM6.85231 30.2117L6.28578 32.7726C6.19135 33.2174 6.19135 33.6622 6.28578 34.1071L7.31092 38.7168L2.32007 33.4331V30.0903L2.67078 29.3086L6.85231 30.2117ZM2.81916 26.9767L2.33356 25.858L2.69776 19.0916C2.71125 18.9703 2.72473 18.8489 2.75171 18.7411L9.18587 19.5633L7.3379 27.9472L2.81916 26.9767Z"/>
    <path d="M12.6929 28.0685C12.7469 27.2733 12.9223 26.3297 13.1381 25.7906C14.7972 26.141 20.1118 27.2059 22.7556 27.3272C22.9175 27.3407 23.0658 27.462 23.0793 27.6237L23.1468 28.1494L22.5128 36.6411C22.0542 37.2342 21.3123 38.3933 21.4472 39.6064C21.636 41.4531 23.7672 42.2079 23.9966 42.2887L25.1296 42.6661L25.1026 40.3208L24.7519 40.0917L24.7384 40.0782C24.3203 39.9299 23.7807 39.566 23.7538 39.3638C23.7133 38.9595 24.1584 38.2586 24.4956 37.8946L24.8059 37.1937L25.4803 28.2168V28.0011L25.3994 27.3541C25.251 26.0602 24.1854 25.0762 22.8635 25.0088C20.1792 24.8875 14.1228 23.6205 12.9357 23.3779L12.8818 23.3644L11.978 23.5531L11.9511 23.5666C10.6022 24.5775 10.3864 27.3811 10.3594 27.9337L10.2919 29.0929L12.6255 29.2412L12.6929 28.0685Z"/>
    <path d="M20.1523 47.1816L20.0309 49.6887L25.5343 47.1142L26.0064 47.8016L27.8544 47.842L28.4344 47.1007L33.9783 49.6887L33.8704 47.1816L28.6232 44.5936L28.6097 44.5802L27.1934 44.9036L27.0046 45.1328L26.8697 44.9441L25.4264 44.5802L20.1523 47.1816Z"/>
    <path d="M29.9991 48.9069H23.8617V51.2387H29.9991V48.9069Z"/>
    <path d="M20.7458 29.4164C20.395 28.5672 19.7746 28.3785 19.4373 28.3516C18.8438 28.2976 16.254 28.2302 15.013 28.2033C14.7028 28.1898 14.487 28.1898 14.3925 28.1898L13.7046 28.1763L11.5464 31.8291L14.1902 31.883L15.013 30.5351C15.1209 30.5351 15.2288 30.5351 15.3368 30.5351C15.4312 30.5351 15.5391 30.5351 15.6335 30.5351C15.4851 31.0473 15.4716 31.5326 15.6065 31.9774C15.8628 32.7861 16.5238 33.3253 17.5624 33.5679C17.8052 33.6353 18.0615 33.6622 18.3178 33.6622C19.0462 33.6622 19.6936 33.3792 20.1657 32.8265C21.029 31.8965 21.1234 30.3599 20.7458 29.4164Z"/>
    <path d="M38.524 28.3516C37.9305 28.2976 35.3406 28.2302 34.0997 28.2033C33.7894 28.1898 33.5736 28.1898 33.4792 28.1898L32.7913 28.1763L30.6331 31.8291L33.2769 31.883L34.0997 30.5351C34.2076 30.5351 34.3155 30.5351 34.4234 30.5351C34.5178 30.5351 34.6257 30.5351 34.7202 30.5351C34.5718 31.0473 34.5583 31.5326 34.6932 31.9774C34.9495 32.7861 35.6104 33.3253 36.6491 33.5679C36.8919 33.6353 37.1481 33.6622 37.4044 33.6622C38.1328 33.6622 38.7803 33.3792 39.2524 32.8265C40.0617 31.883 40.1696 30.3464 39.7919 29.4029C39.4682 28.5403 38.7938 28.3785 38.524 28.3516Z"/>
    <path d="M28.3534 37.1802L28.6502 37.8811L28.6637 37.8946C28.9874 38.2585 29.446 38.9729 29.4056 39.3638C29.3786 39.5795 28.8121 39.9569 28.4209 40.0782L27.9353 40.3073L28.0432 42.6527L29.1628 42.2753C29.4056 42.1944 31.5233 41.4396 31.7121 39.593C31.8335 38.3664 31.1052 37.2072 30.6465 36.6276L30.0126 28.1494L30.08 27.6102C30.107 27.4485 30.2419 27.3272 30.4037 27.3137C33.0341 27.1924 38.3621 26.1141 40.0212 25.7771C40.2371 26.3162 40.4124 27.2328 40.4664 28.055L40.5338 29.2142L42.8674 29.0659L42.7999 27.9068C42.7325 26.9093 42.4223 24.4696 41.1948 23.5531L40.264 23.3509L40.2101 23.3644C39.0231 23.6205 32.9666 24.874 30.2823 24.9953C28.9604 25.0627 27.9083 26.0467 27.7464 27.3406L27.6655 28.0011V28.2033L28.3534 37.1802Z"/>
    <path d="M66.2434 29.659C68.0914 31.2495 70.6677 32.0583 73.9185 32.0583C77.1424 32.0583 79.7052 31.2495 81.5397 29.6456C83.3877 28.0146 84.3319 25.6693 84.3319 22.6635V7.83672H79.0848V22.5287C79.0848 24.1731 78.6396 25.4132 77.7763 26.1815C76.8861 26.9767 75.5777 27.3811 73.9051 27.3811C72.1785 27.3811 70.9105 26.9902 70.0068 26.1815C69.1435 25.3997 68.6984 24.1731 68.6984 22.5287V7.83672H63.4243V22.6635C63.4243 25.6693 64.3685 28.0146 66.2434 29.659Z"/>
    <path d="M107.182 7.83672H100.802L92.3308 16.9889V7.83672H87.0567V31.7213H92.3443V23.8631L94.7992 21.2347L101.422 31.7213H107.222L98.1984 17.7033L107.182 7.83672Z"/>
    <path d="M125.985 31.7078H131.516L133.741 25.9389H141.74L143.817 31.3574L143.952 31.7078H149.429L140.567 8.32196L140.391 7.83672H135.117L126.282 30.9395L123.342 24.1597C123.072 23.5262 122.829 23.0274 122.573 22.65C122.505 22.5557 122.438 22.4478 122.357 22.3535C123.449 21.8413 124.326 21.1269 124.987 20.1834C125.864 18.9568 126.309 17.4606 126.309 15.7219C126.309 13.3496 125.662 11.4221 124.394 9.99334C123.099 8.5511 121.075 7.82324 118.364 7.82324H107.317V31.6944H112.604V23.7688H116.071C116.988 23.7688 117.339 23.917 117.474 24.0114C117.636 24.1192 117.879 24.3753 118.135 24.9819L120.941 31.3574L121.089 31.6809L125.985 31.7078ZM112.618 12.2713H117.717C120.023 12.2713 121.048 13.3361 121.048 15.7354C121.048 16.9754 120.738 17.8785 120.118 18.4042C119.457 18.9568 118.54 19.2399 117.366 19.2399H112.618V12.2713ZM134.901 21.5313L137.721 14.1044L140.54 21.5313H134.901Z"/>
    <path d="M154.865 7.83672H149.591V31.7078H154.865V7.83672Z"/>
    <path d="M163.052 16.8541L173.587 31.7078H178.052V7.83672H172.805V22.7309L162.23 7.83672H157.765V31.7078H163.052V16.8541Z"/>
    <path d="M198.218 27.3137H186.388V21.9761H196.936V17.5685H186.388V12.2713H198.218V7.83672H181.114V31.7213H198.218V27.3137Z"/>
    <path d="M71.0454 37.0994H64.2336V53.8536H71.0454C73.5543 53.8536 75.4293 53.1797 76.6028 51.8588C77.7763 50.5513 78.3698 48.4351 78.3698 45.5911C78.3698 42.5718 77.7629 40.3747 76.5758 39.0808C75.3753 37.7598 73.5274 37.0994 71.0454 37.0994ZM74.8897 49.3247C74.5255 50.1874 74.013 50.767 73.2981 51.077C72.5697 51.387 71.6659 51.5487 70.6138 51.5487H67.1876V39.4312H70.6138C71.7738 39.4312 72.718 39.6065 73.4195 39.9569C74.1209 40.3074 74.6335 40.9409 74.9572 41.8035C75.2809 42.6796 75.4428 43.9467 75.4428 45.5641C75.4293 47.2355 75.2539 48.4621 74.8897 49.3247Z"/>
    <path d="M81.0002 53.8536H92.7354V51.5487H83.9542V46.629H91.7777V44.3241H83.9542V39.4312H92.7354V37.0994H81.0002V53.8536Z"/>
    <path d="M95.2039 53.8536H98.1579V46.629H105.698V44.3241H98.1579V39.4312H106.656V37.0994H95.2039V53.8536Z"/>
    <path d="M108.747 53.8536H120.482V51.5487H111.701V46.629H119.524V44.3241H111.701V39.4312H120.482V37.0994H108.747V53.8536Z"/>
    <path d="M134.106 49.1899L125.54 37.0994H122.95V53.8536H125.904V41.79L134.429 53.8267L134.443 53.8536H137.033V37.0994H134.106V49.1899Z"/>
    <path d="M146.987 37.0994H140.175V53.8536H146.987C149.496 53.8536 151.371 53.1797 152.545 51.8588C153.718 50.5513 154.312 48.4351 154.312 45.5911C154.312 42.5718 153.705 40.3747 152.518 39.0808C151.317 37.7598 149.469 37.0994 146.987 37.0994ZM150.832 49.3247C150.467 50.1874 149.955 50.767 149.24 51.077C148.512 51.387 147.608 51.5487 146.556 51.5487H143.13V39.4312H146.556C147.716 39.4312 148.66 39.6065 149.361 39.9569C150.063 40.3074 150.575 40.9409 150.899 41.8035C151.223 42.6796 151.385 43.9467 151.385 45.5641C151.371 47.2355 151.196 48.4621 150.832 49.3247Z"/>
    <path d="M156.942 53.8536H168.677V51.5487H159.896V46.629H167.72V44.3241H159.896V39.4312H168.677V37.0994H156.942V53.8536Z"/>
    <path d="M183.394 45.5102C183.987 44.6745 184.284 43.6501 184.284 42.4775C184.284 40.833 183.852 39.5121 182.989 38.5551C182.112 37.5846 180.763 37.0994 178.861 37.0994H171.146V53.8536H174.1V47.9634H177.162C177.796 47.9634 178.227 48.0577 178.484 48.2329C178.74 48.4082 178.969 48.7182 179.145 49.163L181.195 53.8536H184.23L182.099 48.9338C181.937 48.5025 181.761 48.1521 181.586 47.8825C181.438 47.6534 181.235 47.4377 180.952 47.222C182.004 46.8851 182.827 46.3055 183.394 45.5102ZM181.316 42.4775C181.316 43.5423 181.033 44.3375 180.466 44.8228C179.913 45.308 179.118 45.5641 178.106 45.5641H174.086V39.4177H178.362C180.318 39.4177 181.316 40.4421 181.316 42.4775Z"/>
    <path d="M198.177 47.1951C197.854 46.5346 197.327 45.982 196.572 45.5102C195.817 45.0384 194.765 44.6341 193.389 44.2701C192.215 43.9601 191.46 43.7175 190.92 43.5153C190.34 43.3132 189.936 43.0436 189.693 42.747C189.464 42.4505 189.342 42.0596 189.342 41.5744C189.342 40.7522 189.679 40.1726 190.34 39.8626C191.015 39.5391 191.972 39.3773 193.2 39.3773C194.765 39.3773 196.208 39.6334 197.516 40.1321L197.611 40.1726V37.5442L197.57 37.5307C197.058 37.3555 196.37 37.1937 195.56 37.0724C194.711 36.9376 193.793 36.8702 192.822 36.8702C190.705 36.8702 189.086 37.2881 188.007 38.1238C186.928 38.9729 186.375 40.1456 186.375 41.6148C186.375 42.8953 186.739 43.8927 187.467 44.6206C188.209 45.3485 189.491 45.9415 191.271 46.3998C192.31 46.6424 193.213 46.912 193.888 47.1816C194.508 47.4242 194.967 47.7073 195.223 48.0577C195.493 48.3812 195.628 48.8125 195.628 49.3787C195.628 50.2683 195.304 50.8748 194.67 51.1713C194.036 51.4679 193.038 51.6296 191.716 51.6296C190.853 51.6296 190.003 51.5488 189.18 51.3735C188.371 51.2118 187.562 50.9826 186.806 50.6996L186.712 50.6726V53.2875L186.752 53.301C188.074 53.8536 189.774 54.1232 191.972 54.1232C194.198 54.1232 195.83 53.7189 196.963 52.8697C198.069 52.034 198.622 50.8478 198.622 49.3652C198.649 48.5699 198.501 47.8555 198.177 47.1951Z"/>
</svg>
